<?xml version="1.0" standalone="no"?>
<!DOCTYPE svg PUBLIC "-//W3C//DTD SVG 20010904//EN"
 "http://www.w3.org/TR/2001/REC-SVG-20010904/DTD/svg10.dtd">
<svg version="1.0" xmlns="http://www.w3.org/2000/svg"
 width="201.000000pt" height="199.000000pt" viewBox="0 0 201.000000 199.000000"
 preserveAspectRatio="xMidYMid meet">

<g transform="translate(0.000000,199.000000) scale(0.100000,-0.100000)"
fill="#000000" stroke="none">
<path d="M935 1699 c-4 -6 -5 -12 -2 -15 2 -3 7 2 10 11 7 17 1 20 -8 4z"/>
<path d="M1033 1675 c0 -8 4 -12 9 -9 5 3 6 10 3 15 -9 13 -12 11 -12 -6z"/>
<path d="M1160 1260 c-25 -6 -46 -14 -48 -20 -2 -6 -8 -8 -13 -5 -4 3 -28 -4
-51 -16 -46 -23 -115 -79 -98 -79 5 0 20 11 32 25 20 23 22 23 34 7 7 -9 10
-21 7 -25 -6 -10 34 12 61 33 11 9 16 10 12 3 -10 -18 12 -53 29 -47 8 4 13 9
10 14 -2 4 7 5 20 2 14 -2 25 0 25 5 0 16 133 -3 185 -26 l49 -22 29 31 c15
16 32 30 38 30 36 0 -38 49 -113 74 -58 20 -153 27 -208 16z m-86 -56 c3 -8 2
-12 -4 -9 -6 3 -10 10 -10 16 0 14 7 11 14 -7z m-4 -31 c0 -3 -7 -3 -15 1 -8
3 -15 0 -15 -6 0 -6 -3 -9 -6 -5 -11 10 6 26 21 20 8 -3 15 -7 15 -10z"/>
<path d="M1030 1125 c0 -7 30 -13 34 -7 3 4 -4 9 -15 9 -10 1 -19 0 -19 -2z"/>
<path d="M728 1093 c7 -3 16 -2 19 1 4 3 -2 6 -13 5 -11 0 -14 -3 -6 -6z"/>
<path d="M784 1083 c3 -4 17 -8 29 -10 17 -2 19 -1 7 7 -17 11 -47 14 -36 3z"/>
<path d="M840 1061 c0 -17 18 -21 24 -6 3 9 0 15 -9 15 -8 0 -15 -4 -15 -9z"/>
<path d="M823 1045 c0 -8 4 -15 9 -15 4 0 8 4 8 9 0 6 -4 12 -8 15 -5 3 -9 -1
-9 -9z"/>
<path d="M799 1014 c-1 -5 -1 -13 0 -18 1 -5 -7 -6 -19 -3 -12 3 -18 1 -14 -5
3 -5 15 -8 25 -5 11 3 19 1 19 -4 0 -5 7 -9 15 -9 8 0 15 5 15 10 0 6 -5 9
-12 8 -7 -2 -12 2 -13 9 0 14 -15 30 -16 17z"/>
<path d="M1086 575 c-4 -11 -4 -16 0 -12 8 8 34 -11 34 -24 0 -5 -5 -8 -11 -6
-6 1 -14 -5 -16 -13 -4 -13 -3 -13 6 0 10 13 11 13 11 0 1 -12 3 -11 11 3 7
13 7 22 0 31 -6 7 -7 17 -3 21 4 5 2 5 -5 2 -6 -4 -13 -2 -15 5 -3 7 -7 4 -12
-7z"/>
<path d="M1152 551 c-7 -4 -12 -14 -10 -21 4 -17 -50 -39 -60 -25 -4 6 -12 11
-17 12 -6 1 -22 3 -35 6 -14 2 -19 2 -12 0 6 -3 12 -9 12 -14 0 -6 5 -7 10 -4
6 3 10 2 10 -4 0 -6 7 -7 17 -4 10 4 14 2 10 -4 -4 -7 12 -17 40 -27 69 -24
75 -22 67 19 -4 21 -2 41 5 49 9 11 8 15 -5 20 -19 7 -16 7 -32 -3z"/>
<path d="M295 210 c-4 -6 1 -7 11 -3 13 5 15 3 9 -8 -4 -8 -5 -11 0 -7 11 11
36 -12 28 -26 -4 -7 -1 -7 7 1 11 10 9 16 -11 32 -27 23 -35 25 -44 11z"/>
<path d="M370 174 c0 -8 10 -14 26 -14 28 0 25 15 -6 23 -13 3 -20 0 -20 -9z"/>
<path d="M276 132 c-2 -4 -1 -14 4 -22 7 -11 9 -9 7 8 -1 24 -3 26 -11 14z"/>
<path d="M306 88 c3 -5 10 -6 15 -3 5 4 9 2 9 -3 0 -6 6 -12 13 -15 8 -3 14 1
14 9 0 7 -4 11 -9 8 -4 -3 -8 -1 -8 5 0 5 -9 9 -19 8 -11 0 -17 -5 -15 -9z"/>
</g>
</svg>
